<svg xmlns="http://www.w3.org/2000/svg" xmlns:xlink="http://www.w3.org/1999/xlink" viewBox="0 0 64.53 82.52" xmlns:v="https://vecta.io/nano"><path d="M63.35 17.38c-.18-.07-.38-.1-.54-.23-.08-.06-.17-.16-.22-.3-.04-.15 0-.29.05-.39.07-.1.09-.21.08-.08.02.09.1.05.05.07l-.43.18c-.3.14-.6.29-.94.39-.31.09-.76.21-1.15-.1-.12-.09-.16-.31-.12-.43.03-.12.1-.22.12-.28.06-.14.14-.25.18-.42l.33-.95c.25-.63.6-1.25 1.12-1.73l.1.36c-.32-.07-.64-.03-.97.05l-.52.13c-.18.03-.35.12-.64.06-.56-.22-.53-.78-.69-.5-.34.11-.69.25-1.08.3a2.09 2.09 0 0 1-.61-.01c-.2-.02-.51-.21-.55-.5-.05-.51.17-.81.32-1.16.37-.67.86-1.21 1.33-1.75l.14.35c-.57-.07-1.2.18-1.83.31-.31.08-.64.17-.99.19-.33.03-.77 0-1.08-.29-.05-.04-.07-.05-.06-.04.01-.01-.05.02-.11.06-.13.09-.28.2-.46.27-.37.18-.88.05-1.12-.3-.23-.34-.27-.73-.21-1.1.06-.36.21-.68.36-.97l.14.31c-.29-.09-.68.13-1.07.27l-1.17.46c-.39.15-.79.32-1.27.37-.12 0-.29 0-.44-.12-.16-.12-.19-.3-.21-.42-.02-.23.03-.44.06-.66l.33.23-1.03.61c-.18.1-.38.18-.59.24s-.52.08-.76-.1c-.25-.24-.22-.27-.32-.26s-.28.12-.42.22l-.93.74-.35.24v-.42-.89l.33.19-2.16 1.23-2.22 1.08c-1.46.72-2.83 1.63-3.94 2.8-.5.57-.93 1.36-1.52 1.95l-.81.93c-.28.31-.54.6-.7.94-.18.36-.24.67-.01.9.23.25.59.43.95.53a5.45 5.45 0 0 0 .58.14l.2.04c-.06.02-.04.08-.03-.05a.59.59 0 0 1 .04-.21c.02-.06.09-.22.27-.26.3 0 .35.12.45.17.19.16.3.29.42.31l-.23.07c-.01.01-.01.04-.01-.03a1.95 1.95 0 0 1-.02-.25c-.01-.16.07-.45.32-.56.2-.09.49-.08.37-.05-.03-.02.26-.32.51-.27.12.01.21.04.29.08.06.03-.01-.01-.03 0-.03 0-.04.01-.03.01.04-.02.1-.15.21-.3.1-.13.27-.3.53-.33.26-.02.44.11.58.21l-.42.11c.06-.16.13-.32.25-.49a.86.86 0 0 1 .57-.36c.39-.06.71-.05 1.08.01.34.08.71.15 1.04.47.31.3.43.78.33 1.19-.09.39-.3.72-.51.99l-.67.75a2.28 2.28 0 0 0-.27.31c-.03.05-.04.08-.05.12l-.02.21c-.02.1-.04.23-.13.38a.6.6 0 0 1-.5.26c-.16 0-.26-.04-.35-.06l-.13-.04c-.01 0-.06-.02-.03-.01.05.03.11.03.16.01l.25-.33c-.01-.11.01 0 .08.15a.58.58 0 0 1 .01.4c-.06.16-.19.26-.24.29-.02.02.01-.01-.01.02-.01.03-.01.13-.02.26l-.04.44-.45-.11-.5-.15c-.03-.01-.06-.01-.04-.01 0 .01.13-.01.2-.09.08-.12.02-.03.03.03-.03.32-.05.64 0 .92.05.32.14.43.23.43.1.03.47-.08.73-.2.55-.25 1.14-.66 1.73-1l1.84-1.03c.66-.3 1.35-.56 2.15-.62.8-.08 1.71.28 2.26.84.56.56.98 1.15 1.27 1.92.29.76.22 1.71-.13 2.43-.37.75-.8 1.25-1.24 1.82l-1.32 1.59c-.85 1.03-1.61 2.12-2.22 3.29a14.29 14.29 0 0 0-1.33 3.67 15.61 15.61 0 0 0-.27 1.94l-.1 2.07c-.29 2.91-1.67 5.68-3.78 7.7-2.1 2.03-4.97 3.25-7.89 3.4-1.46.08-2.94-.12-4.33-.55-1.4-.44-2.68-1.08-3.89-1.83-2.44-1.5-4.47-3.66-5.91-6.12-1.43-2.48-2.36-5.17-2.85-7.96-.46-2.81-.45-5.64-.03-8.44.86-5.62 3.8-10.77 7.88-14.65 2.06-1.93 4.48-3.47 7.07-4.57 2.59-1.11 5.34-1.74 8.07-2.17 2.75-.42 5.46-.66 8.18-.98 1.34-.17 2.77-.27 4.04-.5.61-.13 1.08-.37 1.44-.81s.51-.96.36-1.43l.82.26c-.17.12-.35.32-.61.54a1.79 1.79 0 0 1-.47.29c-.16.09-.56.17-.85-.03-.07-.04-.12-.09-.17-.14l-.05-.09c-.04-.04-.07-.07-.11-.1-.08-.06-.16-.11-.25-.15-.18-.08-.39-.1-.63-.08-.15.01-.15.04-.48.06-.09.01-.33-.1-.38-.24-.06-.12-.05-.19-.06-.25 0-.05.01-.12.01-.14 0 0 0 .01.01.02.04.08.13.05.05.06l-.38.12c-.28.06-.47.22-.91.23a.46.46 0 0 1-.37-.24c-.06-.13-.06-.22-.06-.3 0-.17.02-.32.02-.42l.14-.21c-.01.01-.03.01-.04.03-.01.01-.08.08-.08.13l.4.18h-.01l-.08.09-.11-.01c-.11-.01-.23.03-.39.12-.17.09-.33.15-.49.24a1.17 1.17 0 0 1-.66.12c-.13-.01-.3-.11-.38-.25s-.08-.29-.08-.37c.01-.07-.03-.11.01-.05.07.03.01 0-.05.03l-.49.2c-.17.07-.32.14-.52.2-.1.03-.21.06-.35.05-.13 0-.32-.07-.41-.19-.18-.22-.19-.48-.22-.59-.01-.03 0 .03.09.06.07.01.04 0 .02.01l-.24.1c-.34.13-.66.28-1.03.4-.18.04-.49.12-.75-.12-.21-.23-.22-.48-.25-.63.25-.03-.27.13-.54.27-.34.17-.58.36-1.02.49-.1.01-.3.03-.47-.1-.15-.12-.19-.25-.23-.35-.07-.21-.09-.42-.12-.43.04.02.01-.02-.17.08l-.45.26c-.29.15-.58.41-1.01.52a.92.92 0 0 1-.38.03.62.62 0 0 1-.4-.24c-.16-.23-.2-.5-.2-.45.01.02.1.05.11.04.02 0 0 0-.03.02l-.2.14-.45.3-.46.31c-.17.09-.42.22-.74.12-.3-.11-.43-.34-.53-.49-.01-.02-.03-.04-.02-.03.01.02.13.04.15.02.05-.02-.04.05-.1.11l-.39.38c-.13.12-.3.29-.58.36-.7.11-.96-.59-1.06-.62-.01.02.17.04.19 0 .02-.01 0 0-.02.03l-.15.2c-.12.15-.21.3-.37.46-.3.3-.8.51-1.27.39-.47-.1-.78-.48-.99-.66-.09-.03.01-.04-.07 0l-.35.39c-.22.24-.48.62-.99.74-.5.11-.95-.14-1.23-.34-.16-.1-.33-.22-.41-.25-.05-.02-.04 0 0-.02.03-.02 0 0-.03.05-.11.23-.24.65-.35.97-.11.3-.22.79-.72 1.06-.53.28-1.09-.03-1.35-.25-.27-.18-.58-.46-.81-.55-.12-.05-.18-.04-.2-.02-.03.01-.1.11-.15.25-.21.67-.35 1.34-.61 2.08-.08.19-.17.38-.33.57a1.04 1.04 0 0 1-.73.37c-.57-.01-.89-.28-1.21-.49-.15-.11-.31-.26-.36-.27-.08-.01.01-.02-.02 0-.01.02-.03.05-.05.12l-.07.25-.15.51-.15.51c-.08.19-.12.4-.34.65a.82.82 0 0 1-.47.24c-.17.02-.3 0-.41-.02-.23-.05-.4-.13-.56-.19-.83-.33-.97-.36-1.05.19-.07.76-.14 1.45-.44 2.25-.09.21-.24.43-.48.59a1.22 1.22 0 0 1-.79.2c-.52-.05-.82-.27-1.15-.41-.4-.22-.54-.19-.48-.2 0 0-.04.05-.03.21v.53 1.08c-.01.22-.04.48-.21.76-.18.29-.55.43-.81.44-.55.01-.81-.13-1.2-.19-.2-.05-.32-.07-.37-.06-.05.02.05-.04.01 0-.02.04-.02.18-.01.37l.03.53c.02.35.03.71.03 1.09 0 .19.01.36-.03.6-.02.21-.15.61-.5.8-.32.16-.55.14-.74.15h-.56c-.19 0-.39-.02-.59-.04-.23-.04-.33-.05-.36-.04 0 .03.1-.12.07-.07a.86.86 0 0 0 .1.31c.12.28.31.57.5.87.2.32.44.73.41 1.29-.04.6-.49 1-.83 1.2-.37.23-.68.36-1.03.52a10.75 10.75 0 0 1-1.03.36c-.12.06-.06.03-.05 0 0 .01 0 .12.08.28l.86 1.96c.08.21.14.47.09.77s-.24.58-.44.73c-.19.16-.42.27-.59.34l-.49.2c-.31.13-.7.27-.94.39-.05.02-.05.06.01-.04.05-.14 0-.19.02-.14.04.08.16.24.26.39.41.61.81 1.25 1.09 1.97l.1.27c.04.1.09.26.08.44-.01.41-.34.7-.46.79a6.75 6.75 0 0 1-.96.65c-.35.19-.66.33-.97.49-.17.08-.28.15-.31.18-.01.02.02-.03.02-.07 0-.03 0-.01.02.03.03.08.16.22.28.35l.34.38a22.99 22.99 0 0 0 .71.78l.75.79c.12.14.25.22.42.54a.8.8 0 0 1 0 .66c-.1.21-.22.3-.32.38l-1.83 1.19c-.09.05-.13.09-.16.12l-.11.11c-.01.02.05-.04 0-.19-.05-.13-.15-.14-.07-.11a11.81 11.81 0 0 1 1.02.47c.66.34 1.27.7 1.89 1 .16.09.4.18.62.46.11.14.19.41.14.62-.05.22-.15.35-.23.46-.37.39-.64.53-.97.75-.63.39-1.38.71-1.96.96-.04.02-.02.02 0-.02.02-.05.02-.03.01-.07 0-.06-.1-.16-.08-.13.01.01.1.04.2.08l1 .35 2.01.7c.21.07.49.19.69.47.19.28.26.56.17.93-.11.36-.34.53-.48.66-.16.13-.32.25-.49.35-.34.21-.68.37-.99.52-.3.16-.65.32-.84.48-.12.09-.09.12-.09.06 0-.09-.08-.11-.01-.08l1.03.34c.69.25 1.36.52 2.02.78l.5.19c.17.07.3.09.58.24a1.03 1.03 0 0 1 .37.4c.08.18.1.33.09.52-.05.43-.37.66-.51.76-.68.48-1.4.76-2.05 1.02-.15.06-.25.13-.26.14 0-.01 0 0 .01.05.01-.01-.09-.06.02-.02.08.02.3.02.47.04l2.14.19.54.05c.11.01.23.02.39.07a.93.93 0 0 1 .46.36.9.9 0 0 1 .15.54c-.01.21-.09.38-.17.5-.17.24-.29.33-.43.47-.56.52-1.03.93-1.42 1.48-.08.11-.15.24-.16.31-.01.03.01.02-.02-.04s-.07-.08-.04-.06c.03.03.25.05.4.07l.48.07c.68.06 1.43.06 2.14.09l.54.02c.16.01.35 0 .61.05.25.03.64.27.75.59.14.29.07.72-.09.94-.31.45-.56.59-.83.86-.25.24-.58.5-.77.72-.11.11-.25.26-.21.22 0-.04-.02-.05.03 0-.18.01.34-.05.67-.11l1.06-.16.53-.08c.14-.02.45-.07.7-.01.52.11.93.49 1.11.96a1.7 1.7 0 0 1 .1.73c-.02.15 0 .35-.08.63-.06.28-.37.56-.49.63-.16.12-.32.23-.5.33-.36.2-.79.34-1.24.34v-.89c.27 0 .54-.08.81-.23.25-.15.61-.39.57-.45a2.69 2.69 0 0 0 .04-.43.7.7 0 0 0-.04-.33c-.08-.2-.26-.36-.45-.4-.12-.04-.56.06-.9.11l-1.06.17-.53.08c-.11.03-.61.1-.88-.17a1.05 1.05 0 0 1-.29-.39.9.9 0 0 1-.04-.56c.04-.17.15-.33.22-.4l.21-.22c.29-.31.53-.5.8-.75.24-.22.58-.51.67-.67.04-.08.03-.05.02-.09-.02-.02.03.01-.07-.03-.09-.02-.27-.02-.46-.03l-.53-.02c-.76-.03-1.45-.02-2.19-.09l-.58-.08c-.21-.04-.35-.02-.65-.15-.13-.06-.33-.2-.42-.43a.88.88 0 0 1-.03-.57c.07-.28.19-.46.31-.64.43-.62 1.05-1.18 1.53-1.63.11-.11.26-.26.3-.31.02-.07 0 .06.01.03.05.06.08.03-.1.02l-.53-.05-2.14-.19c-.18-.02-.32-.01-.6-.05-.13-.03-.29-.07-.45-.18s-.28-.3-.33-.47a1.11 1.11 0 0 1-.04-.48.98.98 0 0 1 .21-.49c.23-.26.46-.35.64-.43.68-.27 1.3-.52 1.82-.9.14-.1.12-.13.11-.07 0 .02 0-.02 0 0 .01.01.03.03.01.02-.04-.03-.25-.1-.41-.16l-.51-.2-1.99-.77a39.54 39.54 0 0 0-1.01-.34c-.27-.07-.66-.39-.65-.85 0-.43.29-.7.45-.83.37-.29.69-.41 1.02-.59.33-.16.64-.31.91-.48.25-.14.59-.45.55-.45.01.02-.01-.08-.03-.09-.01-.02-.07-.07-.2-.11l-2.05-.71-1.03-.36c-.06-.03-.14-.05-.29-.13-.14-.06-.37-.3-.4-.54a.88.88 0 0 1 .1-.59c.11-.2.29-.31.4-.37.73-.31 1.31-.56 1.9-.92.26-.16.61-.41.73-.54.03-.03.03-.05.02-.01s.02.12.02.11c0 0-.09-.08-.25-.15-.67-.33-1.29-.7-1.91-1.01-.31-.16-.62-.31-.93-.43-.08-.03-.35-.13-.48-.44-.12-.32.01-.57.1-.7s.18-.19.28-.28.2-.17.26-.2L3.7 35.1c.04-.03.06-.06.03-.02-.03.05-.01.15-.01.14.01 0-.13-.16-.26-.29l-.73-.77c-.23-.21-.48-.49-.73-.78l-.37-.42c-.12-.15-.25-.25-.38-.5-.06-.12-.12-.27-.12-.49a.84.84 0 0 1 .22-.55c.22-.24.44-.32.59-.4.33-.17.67-.32.95-.48.29-.16.57-.34.82-.55.16-.13.11-.12.11-.08.02.04-.05-.16-.11-.31-.25-.62-.6-1.2-.99-1.78-.09-.15-.2-.27-.33-.51-.05-.11-.17-.34-.05-.66.13-.27.29-.34.39-.41.4-.21.69-.29 1.04-.45.33-.14.72-.27.85-.39.13-.13.15-.17.07-.45l-.86-1.97c-.07-.15-.17-.41-.12-.76a.83.83 0 0 1 .27-.5c.13-.12.27-.19.39-.23.42-.13.67-.21 1-.35.62-.26 1.32-.62 1.28-.91.06-.35-.51-.97-.83-1.7-.07-.18-.18-.4-.18-.71 0-.16.04-.35.17-.53s.33-.28.5-.32c.33-.07.59.01.71.02.16.02.32.03.48.03.31.01.8 0 .82-.03-.02.01-.01.04.01-.1.02-.11.01-.3.01-.47a12.73 12.73 0 0 0-.02-1.06l-.03-.54c0-.16-.04-.38.06-.69.06-.31.48-.64.79-.64.31-.03.54.06.69.09.32.06.74.19.91.17.1-.01.1-.02.11-.04.02-.03.06-.13.06-.27l.01-1.07v-.54c0-.2.03-.53.28-.79a.95.95 0 0 1 .93-.24c.29.08.41.18.57.25.31.15.64.34.85.35s.29-.04.42-.29c.21-.54.34-1.29.39-1.95.02-.22.07-.47.22-.71a1.06 1.06 0 0 1 .71-.47c.28-.05.53.01.74.09l.5.2c.34.16.67.19.57.18.08-.06.19-.5.29-.83l.16-.52.08-.26a1.05 1.05 0 0 1 .19-.36c.09-.12.25-.25.44-.28a.81.81 0 0 1 .5.06c.29.13.37.27.51.36.25.2.56.37.72.35.12.03.28-.16.4-.46.22-.61.4-1.34.62-2.04.08-.2.18-.44.46-.62.29-.18.63-.11.83-.02.23.09.37.21.51.32l.45.33c.54.43.79.26 1.03-.5.14-.35.21-.63.4-1.04.06-.1.14-.24.33-.33.2-.09.4-.05.52 0 .26.11.37.22.51.3.6.45.93.35 1.43-.29l.37-.41a.7.7 0 0 1 .44-.2c.19-.01.35.08.46.16.31.3.49.51.74.56.24.06.49-.02.7-.22.1-.09.2-.25.31-.37l.18-.23c.04-.04.08-.09.17-.16a.43.43 0 0 1 .45.01c.26.21.3.35.41.45.1.1.15.11.2.1.15-.02.45-.36.69-.58.07-.05.1-.13.31-.23.11-.06.33-.02.4.06.09.07.12.13.16.18.09.16.18.25.22.25.06.07.44-.17.72-.36l.44-.29.25-.16c.05-.03.12-.07.22-.08.1-.03.29.03.36.11.39.66.13.54.45.53.27-.06.55-.28.89-.46l.49-.27c.07-.04.19-.1.33-.11a.55.55 0 0 1 .48.19c.1.14.13.25.15.36.02.08.03.16.06.23.02.06.05.11.04.1-.02-.01-.03 0 .04-.01.25-.06.6-.29.91-.45l.53-.22c.08-.03.16-.1.38-.07.11.01.23.1.28.18a.66.66 0 0 1 .08.22c.02.19.06.32.1.36.01.03.11.04.27 0 .31-.1.65-.25.97-.37l.25-.1c.06-.02.12-.06.28-.03.18.05.23.2.25.26.05.24.07.35.13.42-.01.09.41-.05.73-.19l.51-.2c.1-.02.25-.1.47.03.2.16.18.33.19.43.01.19 0 .15.07.18.11.02.25-.01.38-.08.15-.08.33-.15.48-.22.16-.08.38-.19.63-.17l-.2.04.03-.03.41-.46v.64a.31.31 0 0 1-.09.18c-.03.02-.05.03-.08.05l.14-.21-.01.41c0 .05.01.1.02.1.01-.01-.05-.04-.03-.04.12-.01.43-.15.68-.26l.4-.18a.57.57 0 0 1 .39-.01c.15.04.31.18.36.34.03.08.04.16.04.22v.07c0 .01.01.01-.01-.05-.02-.08-.19-.16-.21-.14-.05 0 .21-.07.33-.1.31-.07.67-.09 1.02.01a1.73 1.73 0 0 1 .5.22 1.77 1.77 0 0 1 .22.16l.1.08c-.06-.05-.15-.03-.07-.06.07-.04.15-.1.23-.17.17-.14.35-.36.62-.58l.58-.47.24.73c.28.86-.02 1.8-.53 2.41-.49.65-1.31 1.07-2.04 1.21-1.43.27-2.74.37-4.12.56-2.72.35-5.47.62-8.14 1.06-2.67.45-5.31 1.09-7.75 2.16-2.45 1.07-4.71 2.55-6.63 4.38s-3.52 4.03-4.8 6.36a24.12 24.12 0 0 0-2.53 7.52c-.39 2.62-.4 5.34.03 7.94.46 2.6 1.35 5.17 2.67 7.44 1.33 2.27 3.17 4.22 5.4 5.59 2.23 1.4 4.75 2.31 7.32 2.15 2.56-.13 5.04-1.2 6.89-2.98 1.87-1.75 3.11-4.17 3.39-6.73l.12-2.03c.06-.72.17-1.42.32-2.12.3-1.41.84-2.77 1.53-4.01.69-1.25 1.54-2.4 2.45-3.46l1.34-1.55c.41-.5.88-1.06 1.12-1.54.25-.51.3-1.03.12-1.57-.17-.52-.54-1.09-.94-1.5-.41-.41-.88-.62-1.46-.59-.57.02-1.2.22-1.79.48s-1.17.6-1.77.94c-.61.33-1.15.7-1.86 1.01a4.43 4.43 0 0 1-.55.18c-.17.04-.43.11-.71.04a1 1 0 0 1-.67-.51c-.13-.24-.16-.44-.19-.64-.05-.41-.01-.77.03-1.13.03-.11-.01-.19.17-.46a.51.51 0 0 1 .44-.17c.11.01.16.03.21.04.21.07.35.13.48.16l-.49.33c.01-.07.01-.18.04-.35.03-.16.17-.38.32-.47.04-.03-.02 0-.04.07-.03.07 0 .12-.01.1 0-.04-.1-.11-.11-.42l-.01-.24.26-.09a.5.5 0 0 1 .27-.02c.06.01.05.02.08.02l.11.04c.06.02.12.03.13.03.01-.01-.09.03-.09.05-.01.01.02-.02.02-.08.01-.02.01-.06.01-.09 0-.04.01-.13.03-.18.03-.13.09-.23.15-.33.12-.18.26-.3.37-.42.43-.45.93-.91 1.05-1.39.06-.23 0-.46-.15-.62-.13-.15-.43-.25-.71-.32-.27-.06-.61-.07-.86-.03-.12.02-.16.05-.23.13-.07.09-.13.23-.2.37l-.13.3-.29-.19c-.21-.14-.19-.15-.36.02-.07.08-.12.22-.31.38-.05.04-.12.08-.22.09-.09.02-.23-.05-.23-.05a.54.54 0 0 0-.12-.04c-.05.02 0-.05-.18.16-.2.12-.3.07-.36.08-.05 0-.09.01-.11.02s-.05.03-.06.15a1.03 1.03 0 0 0 .01.17c.01.07.01.26-.1.38l-.1.11-.13-.03c-.3-.08-.46-.3-.58-.39-.05-.06-.19-.09-.09-.08.15-.1.04-.03.06.05.01.07-.03.38-.31.45-.25.03-.29-.03-.41-.04a7.94 7.94 0 0 1-.62-.15c-.41-.13-.83-.31-1.16-.67-.17-.18-.28-.46-.26-.73.02-.26.11-.48.2-.67.19-.41.5-.74.76-1.04l.82-.93c.58-.58.94-1.27 1.52-1.94 1.17-1.23 2.58-2.16 4.07-2.89l2.22-1.08c.73-.36 1.42-.8 2.13-1.21l.33-.19v.38.89l-.35-.18c.31-.21.58-.49.92-.74.18-.12.33-.25.63-.3.15-.02.34.04.44.14.12.12.14.18.19.21.15.15.56-.01.88-.18.32-.18.67-.4 1.01-.6l.41-.24-.08.47c-.03.2-.07.4-.05.56.04.17.02.14.2.16.35-.04.74-.18 1.13-.34l1.17-.46.59-.23c.21-.08.49-.12.74-.06l.27.07-.08.24c-.3.54-.49 1.18-.19 1.62.13.18.39.27.61.16.12-.05.24-.13.37-.23.07-.05.15-.12.33-.14.18-.01.3.09.37.16.37.33 1.07.14 1.67-.01.63-.12 1.25-.4 1.98-.32l.41.04-.28.31c-.47.53-.95 1.07-1.28 1.67-.15.29-.32.66-.28.88-.01.16.36.22.68.17.33-.04.65-.16.99-.28.02.02.14-.15.41-.06.2.13.2.21.26.27.1.14.22.28.27.28.49.01 1.32-.44 2.11-.25l.39.1-.28.26c-.46.43-.78.98-1.02 1.58-.12.3-.22.61-.32.92-.1.29-.37.79-.29.69.15.13.44.11.74.01.29-.09.58-.23.89-.37.16-.07.3-.14.49-.2.1-.05.4-.03.47.23.02.3-.12.32-.11.37-.03.1-.04.09.06.18s.25.09.37.15l-.08.39z" fill="#fff"/><linearGradient id="A" gradientUnits="userSpaceOnUse" x1="38.813" y1="15.171" x2="39.89" y2="16.076"><stop offset=".045" stop-color="#666"/><stop offset=".065" stop-color="#7a7a7a"/><stop offset=".097" stop-color="#919191"/><stop offset=".131" stop-color="#a2a2a2"/><stop offset=".168" stop-color="#acacac"/><stop offset=".215" stop-color="#afafaf"/><stop offset=".479" stop-color="#fff"/><stop offset=".534" stop-color="#fbfbfb"/><stop offset=".584" stop-color="#f1f1f1"/><stop offset=".631" stop-color="#dedede"/><stop offset=".676" stop-color="#c5c5c5"/><stop offset=".72" stop-color="#a4a4a4"/><stop offset=".734" stop-color="#999"/><stop offset="1" stop-color="#ccc"/></linearGradient><path d="M39.1 16.15c-.25-.05-.67-.01-.74-.29-.06-.24.3-.44.56-.57a1.52 1.52 0 0 1 1.27-.07c.22.09.29.16.11.37a1.7 1.7 0 0 1-1.2.56z" fill="url(#A)"/><g fill="#fff"><path d="M39.61 15.12a1.49 1.49 0 0 0-.7.18c-.25.13-.61.33-.56.57.07.28.49.24.74.29a1.67 1.67 0 0 0 1.19-.55c.19-.21.12-.28-.11-.37-.18-.08-.37-.12-.56-.12h0zm6.89-13.2l-.03.03h0c.01 0 .02-.01.03-.01v-.02h0z"/><g stroke="#fff" stroke-width=".25" stroke-miterlimit="10"><use xlink:href="#C"/><path d="M14.48 78.14c0 .69-.37 1.32-1.15 1.32-.72 0-1.13-.58-1.13-1.3s.4-1.3 1.16-1.3c.69-.01 1.12.54 1.12 1.28zm-2.07 0c0 .58.32 1.13.93 1.13.65 0 .92-.53.92-1.13 0-.59-.31-1.1-.92-1.1-.64 0-.93.53-.93 1.1zm3.68-1.25h1.54v.19h-1.34v.95h1.25v.19h-1.25v1.21h-.2v-2.54zm3.69.18h-.85v-.19h1.91v.19h-.85v2.35h-.21v-2.35zm3.1 2.35l-.7-2.53h.21l.61 2.3h0c.05-.24.46-1.63.64-2.3h.22l.61 2.3h0c.08-.36.5-1.7.67-2.3h.21l-.77 2.53h-.23l-.6-2.27h0c-.07.33-.45 1.64-.63 2.27h-.24zm4.03-.87l-.32.87h-.21l.93-2.53h.24l.97 2.53h-.22l-.33-.87h-1.06zm1-.18l-.48-1.28h0l-.45 1.28h.93zm2.32-.13v1.18h-.21v-2.53h.91c.5 0 .77.27.77.67 0 .32-.19.53-.47.59.26.06.43.23.43.66v.1c0 .18-.01.42.03.51h-.21c-.05-.11-.04-.31-.04-.53v-.06c0-.41-.12-.59-.61-.59h-.6zm0-.18h.61c.44 0 .65-.17.65-.5 0-.31-.2-.49-.59-.49h-.66v.99zm4.64.12h-1.29v1.06h1.41l-.03.19h-1.59V76.9h1.56v.19h-1.36v.92h1.29v.17zm3.66-1.29h.2v1.1h1.51v-1.1h.2v2.53h-.2v-1.25h-1.51v1.25h-.2v-2.53zm5.81 1.25c0 .69-.37 1.32-1.15 1.32-.72 0-1.13-.58-1.13-1.3s.4-1.3 1.16-1.3c.69-.01 1.12.54 1.12 1.28zm-2.07 0c0 .58.32 1.13.92 1.13.65 0 .92-.53.92-1.13 0-.59-.31-1.1-.92-1.1-.63 0-.92.53-.92 1.1zm3.89-1.25v1.54c0 .67.38.84.73.84.42 0 .73-.18.73-.84v-1.54h.21v1.52c0 .79-.42 1.04-.95 1.04-.5 0-.94-.27-.94-1.01v-1.56h.22z"/><use xlink:href="#C" x="40.35"/><path d="M54.19 78.18H52.9v1.06h1.41l-.03.19h-1.59V76.9h1.56v.19h-1.36v.92h1.29v.17z"/></g><path d="M4.88 72.28c-.64 0-1.22-.15-1.75-.45-.52-.3-.93-.71-1.23-1.24a3.52 3.52 0 0 1-.45-1.76c0-1 .32-1.81.98-2.48s1.46-.99 2.44-.99c.8 0 1.51.24 2.09.73.51.42.85.95 1.04 1.6H6.95c-.1-.24-.24-.45-.4-.64-.21-.23-.46-.42-.74-.54-.29-.13-.6-.19-.93-.19a2.24 2.24 0 0 0-1.7.73c-.45.48-.67 1.08-.67 1.78s.23 1.3.68 1.78 1.02.72 1.7.72c.52 0 .98-.15 1.37-.45.33-.26.58-.6.73-1.02h1.05c-.18.68-.53 1.25-1.04 1.68-.61.49-1.3.74-2.12.74zm8.78 0c-1.03 0-1.85-.32-2.53-.99s-1.01-1.47-1.01-2.47.33-1.8 1.01-2.47 1.51-.99 2.53-.99c.66 0 1.28.15 1.81.45.54.3.96.71 1.26 1.24.3.52.45 1.12.45 1.77 0 1-.33 1.81-1 2.47-.67.67-1.5.99-2.52.99zm0-5.97c-.7 0-1.3.24-1.78.72s-.72 1.08-.72 1.79.24 1.31.72 1.79 1.07.72 1.77.72c.46 0 .89-.11 1.27-.32.38-.22.68-.52.9-.91.21-.38.32-.81.32-1.28 0-.71-.24-1.31-.71-1.79s-1.06-.72-1.77-.72zm6.07 5.82v-6.61h2.44c.98 0 1.77.3 2.41.93.64.62.95 1.4.95 2.37s-.31 1.75-.95 2.38-1.43.94-2.41.94h-2.44zm1.04-.93h1.36c.68 0 1.24-.23 1.68-.68.43-.45.65-1.02.65-1.71s-.22-1.26-.65-1.7-1-.67-1.68-.67h-1.36v4.76zm7.33.93v-6.62h3.76v.92h-2.72v1.91h2.46v.89h-2.46v1.97h2.84v.93zm5.97 0l3.14-5.69h-2.98v-.93h4.59v.03L35.7 71.2h3.24v.93zm7.3-6.62h1.04v6.61h-1.04zm4 6.62v-6.62h1.04v5.69h2.72v.93zm6.13 0v-6.62h1.04v5.69h2.73v.93zm10.8 0l-.8-2.19h-2.59l-.79 2.19h-1.08l2.59-6.61h1.11l2.67 6.61H62.3zm-3.39-2.19h2.59l-1.3-3.54-1.29 3.54z"/></g><defs ><path id="C" d="M9.17 78.74c.08.34.3.53.71.53.46 0 .64-.23.64-.5 0-.28-.13-.46-.68-.6-.54-.13-.77-.31-.77-.68 0-.34.24-.65.79-.65.56 0 .8.34.83.65h-.21c-.06-.27-.23-.46-.63-.46-.36 0-.56.17-.56.45s.17.38.63.5c.71.18.82.46.82.77 0 .37-.27.7-.86.7-.63 0-.87-.37-.92-.71h.21z"/></defs></svg>